<svg width="21" height="21" viewBox="0 0 21 21" fill="none" xmlns="http://www.w3.org/2000/svg">
<path d="M10.4968 0.498881C4.97183 0.50068 0.498321 5.09337 0.500164 10.7559C0.501639 15.2871 3.36789 19.1288 7.34083 20.4822C7.84086 20.5786 8.02409 20.2611 8.024 19.989C8.02392 19.7455 8.01538 19.1003 8.01094 18.2455C5.22947 18.8647 4.64215 16.871 4.64215 16.871C4.18677 15.6877 3.52917 15.3714 3.52917 15.3714C2.62313 14.736 3.59896 14.7487 3.59896 14.7487C4.60315 14.8197 5.13097 15.8047 5.13097 15.8047C6.02315 17.3723 7.47217 16.9188 8.04375 16.6568C8.13354 15.9933 8.39089 15.542 8.67664 15.2853C6.45572 15.0295 4.12127 14.1486 4.11999 10.2199C4.11963 9.10083 4.50683 8.18593 5.14826 7.46834C5.03568 7.20925 4.69784 6.16677 5.23488 4.75444C5.23488 4.75444 6.07229 4.47939 7.98522 5.80484C8.78515 5.57675 9.63511 5.46344 10.4851 5.45794C11.3351 5.46288 12.1851 5.57565 12.9852 5.80321C14.8848 4.47652 15.7224 4.75103 15.7224 4.75103C16.2603 6.16301 15.9232 7.20571 15.8233 7.46487C16.461 8.18204 16.8488 9.09669 16.8492 10.2158C16.8504 14.1549 14.5132 15.0226 12.2883 15.2755C12.6384 15.5832 12.9636 16.2118 12.9639 17.1726C12.9644 18.5448 12.9522 19.6474 12.9523 19.9804C12.9524 20.2491 13.1275 20.5699 13.64 20.4671C17.6404 19.1198 20.5016 15.2737 20.5002 10.7494C20.4983 5.08686 16.0193 0.497083 10.4968 0.498881Z" fill="white"/>
</svg>
