<svg width="30" height="31" viewBox="0 0 30 31" fill="none" xmlns="http://www.w3.org/2000/svg">
<path d="M-9.01547e-07 10.3721L-4.09794e-07 21.6221C-1.83506e-07 26.7989 4.19812 30.9971 9.375 30.9971L20.625 30.9971C25.8019 30.9971 30 26.7989 30 21.6221L30 10.3721C30 5.1952 25.8019 0.997071 20.625 0.997071L9.375 0.997072C4.19812 0.997072 -1.12784e-06 5.1952 -9.01547e-07 10.3721ZM20.625 3.80957C24.2437 3.80957 27.1875 6.75332 27.1875 10.3721L27.1875 21.6221C27.1875 25.2408 24.2437 28.1846 20.625 28.1846L9.375 28.1846C5.75625 28.1846 2.8125 25.2408 2.8125 21.6221L2.8125 10.3721C2.8125 6.75332 5.75625 3.80957 9.375 3.80957L20.625 3.80957Z" fill="white"/>
<path d="M7.5 15.9971C7.5 20.1389 10.8581 23.4971 15 23.4971C19.1419 23.4971 22.5 20.1389 22.5 15.9971C22.5 11.8552 19.1419 8.49707 15 8.49707C10.8581 8.49707 7.5 11.8552 7.5 15.9971ZM19.6875 15.9971C19.6875 18.5808 17.5837 20.6846 15 20.6846C12.4144 20.6846 10.3125 18.5808 10.3125 15.9971C10.3125 13.4133 12.4144 11.3096 15 11.3096C17.5837 11.3096 19.6875 13.4133 19.6875 15.9971Z" fill="white"/>
<path d="M7.93685 7.93422C7.93685 7.38228 7.48942 6.93484 6.93748 6.93484C6.38554 6.93484 5.93811 7.38228 5.93811 7.93422C5.93811 8.48616 6.38554 8.93359 6.93748 8.93359C7.48942 8.93359 7.93685 8.48616 7.93685 7.93422Z" fill="white"/>
</svg>
