<svg width="31" height="32" viewBox="0 0 31 32" fill="none" xmlns="http://www.w3.org/2000/svg">
<path d="M15.5004 31.9971C24.0628 31.9971 31.0004 25.0595 31.0004 16.4971C31.0004 7.93461 24.0628 0.99707 15.5004 0.99707C6.93791 0.99707 0.000366211 7.93461 0.000366211 16.4971C0.000366211 25.0595 6.93791 31.9971 15.5004 31.9971ZM7.09291 16.1612L22.0375 10.3991C22.7311 10.1485 23.3369 10.5683 23.1122 11.6172L23.1134 11.6159L20.5689 23.6038C20.3803 24.4537 19.8752 24.6604 19.1687 24.26L15.2937 21.4041L13.4247 23.2047C13.218 23.4114 13.0436 23.5857 12.6432 23.5857L12.9183 19.6423L20.1 13.1542C20.4126 12.8791 20.0302 12.7241 19.6182 12.9979L10.7432 18.5857L6.91724 17.3922C6.0867 17.1287 6.06862 16.5617 7.09291 16.1612Z" fill="white"/>
</svg>
