<svg width="31" height="32" viewBox="0 0 31 32" fill="none" xmlns="http://www.w3.org/2000/svg">
<path d="M15.5005 0.99707C6.95392 0.99707 0.000488281 7.95051 0.000488281 16.4971C0.000488281 25.0436 6.95392 31.9971 15.5005 31.9971C24.0477 31.9971 31.0005 25.0436 31.0005 16.4971C31.0005 7.95051 24.0477 0.99707 15.5005 0.99707ZM22.2214 19.5533C23.729 20.8917 24.0423 21.3695 24.0936 21.451C24.7183 22.4417 23.4008 22.5623 23.4008 22.5623H20.6243C20.6243 22.5623 19.9483 22.5697 19.3708 22.1869C18.4293 21.5703 17.4434 20.3748 16.7506 20.5823C16.169 20.7562 16.1744 21.542 16.1744 22.2139C16.1744 22.4545 15.9675 22.5623 15.5005 22.5623C15.0335 22.5623 14.8394 22.5623 14.6325 22.5623C13.1115 22.5623 11.4611 22.0501 9.81468 20.3296C7.48564 17.8975 5.44301 12.9981 5.44301 12.9981C5.44301 12.9981 5.32238 12.7515 5.45379 12.6012C5.60273 12.4327 6.00775 12.4543 6.00775 12.4543L8.70003 12.4536C8.70003 12.4536 8.95342 12.5014 9.13538 12.6295C9.28566 12.7346 9.36923 12.9354 9.36923 12.9354C9.36923 12.9354 9.82142 14.4288 10.3976 15.3811C11.5231 17.2397 12.0467 17.2869 12.4288 17.0867C12.9868 16.797 12.8048 14.821 12.8048 14.821C12.8048 14.821 12.8298 13.9726 12.5386 13.5945C12.3142 13.302 11.8849 13.1464 11.6976 13.1221C11.546 13.1026 11.7994 12.837 12.1222 12.6854C12.5535 12.4934 13.1404 12.4442 14.1527 12.4536C14.9405 12.461 15.1676 12.5082 15.4749 12.5789C16.4042 12.7932 16.1744 13.3587 16.1744 15.344C16.1744 15.9802 16.0868 16.8745 16.5666 17.171C16.7735 17.299 17.4825 17.4554 18.744 15.4067C19.3431 14.4349 19.8196 12.8229 19.8196 12.8229C19.8196 12.8229 19.918 12.6457 20.071 12.558C20.2273 12.4684 20.2226 12.4704 20.4369 12.4704C20.6512 12.4704 22.8003 12.4536 23.2721 12.4536C23.7431 12.4536 24.1852 12.4482 24.2614 12.7245C24.3705 13.1214 23.9136 14.4814 22.7558 15.9573C20.8534 18.3793 20.6424 18.1529 22.2214 19.5533Z" fill="white"/>
</svg>
