<svg width="25" height="24" viewBox="0 0 25 24" fill="none" xmlns="http://www.w3.org/2000/svg">
<path d="M2.92969 14.9531L1.06509 14.5418C0.518604 15.6443 0 16.8828 0 18.3097C0 19.7093 0.497607 20.9327 1.06509 22.0776L7.37305 20.6861V23.4303L9.57031 22.3317L11.7676 23.4303V20.6876L18.0263 22.0784C18.5686 20.9844 19.0918 19.7426 19.0918 18.3097C19.0918 18.0627 19.0735 17.8169 19.0428 17.5773H25V-0.000854492H2.92969V14.9531ZM1.90088 20.3931C1.71035 19.8893 1.46484 19.0889 1.46484 18.3097C1.46484 17.5303 1.7104 16.7298 1.90088 16.2262L7.37305 17.4333V19.1861L1.90088 20.3931ZM10.3027 21.0601L9.57031 20.6939L8.83789 21.0601V17.5772H10.3027V21.0601ZM17.1913 20.3923L11.7676 19.187V17.4323L17.1913 16.2271C17.3817 16.731 17.627 17.5309 17.627 18.3096C17.627 19.0886 17.3817 19.8886 17.1913 20.3923ZM23.5352 1.46399V16.1124H18.7038C18.4637 15.3779 18.2701 15.0311 18.0263 14.541L10.9548 16.1124H8.18535L4.39453 15.2762V1.46399H23.5352Z" fill="white"/>
<path d="M8.83789 2.92883H19.0918V4.39368H8.83789V2.92883Z" fill="white"/>
<path d="M5.85938 8.78821H22.0703V10.2531H5.85938V8.78821Z" fill="white"/>
<path d="M8.83789 11.7179H19.0918V13.1827H8.83789V11.7179Z" fill="white"/>
<path d="M10.3027 5.85852H11.7676V7.32336H10.3027V5.85852Z" fill="white"/>
<path d="M13.2324 5.85852H14.6973V7.32336H13.2324V5.85852Z" fill="white"/>
<path d="M16.1621 5.85852H17.627V7.32336H16.1621V5.85852Z" fill="white"/>
</svg>
