<svg width="25" height="25" viewBox="0 0 25 25" fill="none" xmlns="http://www.w3.org/2000/svg">
<g clip-path="url(#clip0_80400_171)">
<path d="M20.2645 19.1448L19.6145 19.5784L21.1449 21.8741H3.85469L5.67773 19.1398H15.6023V18.3585H5.46875C5.40446 18.3585 5.34115 18.3744 5.28446 18.4047C5.22777 18.435 5.17943 18.4789 5.14375 18.5323L2.8 22.048C2.75732 22.1122 2.7345 22.1876 2.73438 22.2648V23.4366C2.73438 23.6438 2.81668 23.8426 2.9632 23.9891C3.10971 24.1356 3.30842 24.2179 3.51562 24.2179H21.4844C21.6916 24.2179 21.8903 24.1356 22.0368 23.9891C22.1833 23.8426 22.2656 23.6438 22.2656 23.4366V22.2648C22.2655 22.1876 22.2427 22.1122 22.2 22.048L20.2645 19.1448ZM3.51562 23.4366V22.6554H21.4844V23.4366H3.51562Z" fill="white"/>
<path d="M20.3125 0.780396H4.6875C4.37698 0.781323 4.07945 0.905086 3.85988 1.12465C3.64032 1.34422 3.51655 1.64176 3.51562 1.95227V12.1085C3.51655 12.419 3.64032 12.7166 3.85988 12.9361C4.07945 13.1557 4.37698 13.2795 4.6875 13.2804H10.1562V14.8429H8.59375C8.49015 14.8429 8.39079 14.8841 8.31754 14.9573C8.24428 15.0306 8.20312 15.1299 8.20312 15.2335V16.796C8.20312 16.8996 8.24428 16.999 8.31754 17.0722C8.39079 17.1455 8.49015 17.1866 8.59375 17.1866H16.4062C16.5099 17.1866 16.6092 17.1455 16.6825 17.0722C16.7557 16.999 16.7969 16.8996 16.7969 16.796V15.2335C16.7969 15.1299 16.7557 15.0306 16.6825 14.9573C16.6092 14.8841 16.5099 14.8429 16.4062 14.8429H14.8438V13.2804H20.3125C20.623 13.2795 20.9205 13.1557 21.1401 12.9361C21.3597 12.7166 21.4834 12.419 21.4844 12.1085V1.95227C21.4834 1.64176 21.3597 1.34422 21.1401 1.12465C20.9205 0.905086 20.623 0.781323 20.3125 0.780396ZM16.0156 15.6241V16.4054H8.98438V15.6241H16.0156ZM10.9375 14.8429V13.2804H14.0625V14.8429H10.9375ZM20.7031 12.1085C20.7031 12.2121 20.662 12.3115 20.5887 12.3847C20.5155 12.458 20.4161 12.4991 20.3125 12.4991H4.6875C4.5839 12.4991 4.48454 12.458 4.41129 12.3847C4.33803 12.3115 4.29688 12.2121 4.29688 12.1085V10.9366H20.7031V12.1085ZM20.7031 10.1554H4.29688V1.95227C4.29688 1.84867 4.33803 1.74931 4.41129 1.67606C4.48454 1.6028 4.5839 1.56165 4.6875 1.56165H20.3125C20.4161 1.56165 20.5155 1.6028 20.5887 1.67606C20.662 1.74931 20.7031 1.84867 20.7031 1.95227V10.1554Z" fill="white"/>
<path d="M18.3594 11.3273H19.1406V12.1085H18.3594V11.3273Z" fill="white"/>
<path d="M8.98438 9.37415H10.5469C10.6505 9.37415 10.7498 9.33299 10.8231 9.25973C10.8963 9.18648 10.9375 9.08712 10.9375 8.98352V8.5929H14.0625V8.98352C14.0625 9.08712 14.1037 9.18648 14.1769 9.25973C14.2502 9.33299 14.3495 9.37415 14.4531 9.37415H16.0156C16.1192 9.37415 16.2186 9.33299 16.2918 9.25973C16.3651 9.18648 16.4062 9.08712 16.4062 8.98352V7.42102C16.4062 7.31742 16.3651 7.21806 16.2918 7.14481C16.2186 7.07155 16.1192 7.0304 16.0156 7.0304H15.625V4.68665H16.0156C16.1192 4.68665 16.2186 4.64549 16.2918 4.57223C16.3651 4.49898 16.4062 4.39962 16.4062 4.29602V2.73352C16.4062 2.62992 16.3651 2.53056 16.2918 2.45731C16.2186 2.38405 16.1192 2.3429 16.0156 2.3429H14.4531C14.3495 2.3429 14.2502 2.38405 14.1769 2.45731C14.1037 2.53056 14.0625 2.62992 14.0625 2.73352V3.12415H10.9375V2.73352C10.9375 2.62992 10.8963 2.53056 10.8231 2.45731C10.7498 2.38405 10.6505 2.3429 10.5469 2.3429H8.98438C8.88077 2.3429 8.78142 2.38405 8.70816 2.45731C8.6349 2.53056 8.59375 2.62992 8.59375 2.73352V4.29602C8.59375 4.39962 8.6349 4.49898 8.70816 4.57223C8.78142 4.64549 8.88077 4.68665 8.98438 4.68665H9.375V7.0304H8.98438C8.88077 7.0304 8.78142 7.07155 8.70816 7.14481C8.6349 7.21806 8.59375 7.31742 8.59375 7.42102V8.98352C8.59375 9.08712 8.6349 9.18648 8.70816 9.25973C8.78142 9.33299 8.88077 9.37415 8.98438 9.37415ZM15.625 8.5929H14.8438V7.81165H15.625V8.5929ZM14.8438 3.12415H15.625V3.9054H14.8438V3.12415ZM9.375 3.12415H10.1562V3.9054H9.375V3.12415ZM10.1562 4.68665H10.5469C10.6505 4.68665 10.7498 4.64549 10.8231 4.57223C10.8963 4.49898 10.9375 4.39962 10.9375 4.29602V3.9054H14.0625V4.29602C14.0625 4.39962 14.1037 4.49898 14.1769 4.57223C14.2502 4.64549 14.3495 4.68665 14.4531 4.68665H14.8438V7.0304H14.4531C14.3495 7.0304 14.2502 7.07155 14.1769 7.14481C14.1037 7.21806 14.0625 7.31742 14.0625 7.42102V7.81165H10.9375V7.42102C10.9375 7.31742 10.8963 7.21806 10.8231 7.14481C10.7498 7.07155 10.6505 7.0304 10.5469 7.0304H10.1562V4.68665ZM9.375 7.81165H10.1562V8.5929H9.375V7.81165Z" fill="white"/>
<path d="M8.98438 20.3116H14.4531V21.0929H8.98438V20.3116Z" fill="white"/>
<path d="M23.3867 14.3898L22.2813 13.2843C22.2449 13.2479 22.2016 13.2192 22.154 13.1997C22.1064 13.1803 22.0553 13.1705 22.0039 13.171C21.9531 13.1705 21.9026 13.1803 21.8556 13.1998C21.8086 13.2192 21.7661 13.248 21.7305 13.2843L16.4805 18.5343C16.4377 18.577 16.4055 18.6292 16.3867 18.6867L16.1094 19.5148C16.0871 19.5834 16.084 19.6569 16.1005 19.7271C16.1171 19.7974 16.1526 19.8617 16.2031 19.9132L15.6523 20.4679L16.2031 21.0187L16.7578 20.4679C16.7936 20.5039 16.8363 20.5325 16.8832 20.5519C16.9301 20.5714 16.9804 20.5813 17.0312 20.5812C17.0736 20.5807 17.1157 20.5742 17.1562 20.5617L17.9844 20.2843C18.0418 20.2655 18.094 20.2334 18.1367 20.1906L23.3867 14.9406C23.4595 14.8674 23.5003 14.7684 23.5003 14.6652C23.5003 14.562 23.4595 14.463 23.3867 14.3898ZM17.6523 19.5734L17.1406 19.7414L16.9258 19.5304L17.0977 19.0187L20.8984 15.2179L21.4531 15.7687L17.6523 19.5734ZM22.0039 15.2179L21.4531 14.6671L22.0039 14.1124L22.5586 14.6671L22.0039 15.2179Z" fill="white"/>
</g>
<defs>
<clipPath id="clip0_80400_171">
<rect width="25" height="25" fill="white" transform="translate(0 -0.000854492)"/>
</clipPath>
</defs>
</svg>
