<svg width="46" height="65" viewBox="0 0 46 65" fill="none" xmlns="http://www.w3.org/2000/svg">
<path d="M22.9719 64.999L4.18634 59.7783L0 12.7733H46.0001L41.8093 59.7713L22.9719 64.999Z" fill="#4353AD"/>
<path d="M38.2217 56.7785L41.8025 16.6167H23V61.0029L38.2217 56.7785Z" fill="#485FB5"/>
<path d="M23 49.0225L22.9748 49.0291L16.5614 47.2954L16.1513 42.6977H10.3704L11.1772 51.7495L22.9735 55.0278L23 55.0205V49.0225ZM8.55994 22.3818L9.0834 28.1466H23V22.3818H8.55994ZM9.59707 34.05L10.1131 39.8151H23V34.05H9.59707Z" fill="#EDEDED"/>
<path d="M27.5654 -0.000912666H34.5403V2.53807H30.4824V3.04611H34.5403V8.88574H27.5654V6.21955H31.6236V5.71191H27.5656V-0.000912666H27.5654ZM19.1956 -0.000912666H26.1703V2.53807H22.1124V3.04611H26.1703V8.88574H19.1958V6.21955H23.2538V5.71191H19.1955V-0.000912666H19.1956ZM10.8259 -0.000912666H17.8005V2.9189H13.7427V5.83912H17.8009V8.75893H10.8259V-0.000912666Z" fill="white"/>
<path d="M36.3662 34.0502L37.4057 22.3819H22.9802V28.1468H31.0947L30.5708 34.0502H22.9802V39.8152H30.0715L29.4026 47.2922L22.98 49.0274V55.0251L34.7856 51.7497L34.872 50.7759L36.2257 35.5983L36.3662 34.0502Z" fill="white"/>
</svg>
