<svg width="46" height="65" viewBox="0 0 46 65" fill="none" xmlns="http://www.w3.org/2000/svg">
<path d="M4.16571 59.7783L0 12.773H45.7746L41.6044 59.7709L22.8592 64.999L4.16571 59.7783Z" fill="#E53D20"/>
<path d="M22.8872 61.0029L38.0342 56.7783L41.5979 16.6164H22.8872V61.0029Z" fill="#F15123"/>
<path d="M22.8873 34.0501H15.3044L14.7806 28.1466H22.8873V22.3816H22.8674H8.51782L8.65504 23.9282L10.0635 39.8149H22.8873V34.0501Z" fill="#EDEDED"/>
<path d="M22.8874 49.0222L22.8623 49.029L16.4802 47.2952L16.0721 42.6975H12.971H10.3196L11.1225 51.7493L22.861 55.0276L22.8874 55.0202V49.0222Z" fill="#EDEDED"/>
<path d="M4.25879 -0.000935555H7.17102V2.89358H9.8349V-0.000935555H12.7473V8.7644H9.83502V5.82931H7.17114V8.7644H4.259V-0.000935555H4.25879Z" fill="white"/>
<path d="M16.5769 2.9058H14.0132V-0.000935555H22.0542V2.9058H19.4893V8.7644H16.5771V2.9058H16.5769Z" fill="white"/>
<path d="M23.3303 -0.000935555H26.3669L28.2348 3.07892L30.1009 -0.000935555H33.1386V8.7644H30.2384V4.41981L28.2348 7.53641H28.1848L26.1799 4.41981V8.7644H23.3303V-0.000935555Z" fill="white"/>
<path d="M34.5879 -0.000935555H37.501V5.86712H41.5963V8.7644H34.5879V-0.000935555Z" fill="white"/>
<path d="M22.8674 34.0501V39.8149H29.9239L29.2588 47.2917L22.8674 49.0272V55.0249L34.6153 51.7494L34.7014 50.7755L36.0481 35.5981L36.1879 34.0501H34.6437H22.8674Z" fill="white"/>
<path d="M22.8674 22.3817V28.1467H36.6909H36.7093L36.8243 26.8509L37.0853 23.9283L37.2224 22.3817H22.8674Z" fill="white"/>
</svg>
