<svg width="162" height="37" viewBox="0 0 162 37" fill="none" xmlns="http://www.w3.org/2000/svg">
<path fill-rule="evenodd" clip-rule="evenodd" d="M154.373 2.70557L161.139 2.74274C161.139 2.74274 148.56 19.7878 147.533 21.177C147.199 21.6269 146.692 22.112 146.435 22.7134C145.786 24.2253 145.119 27.5415 145.119 27.5415L138.928 27.5721C138.928 27.5721 139.891 24.1156 139.852 22.2744C139.817 20.6658 138.996 19.0595 138.535 17.4463C138.07 15.8136 137.438 12.6182 137.438 12.6182H143.802L144.68 16.1296L154.373 2.70557Z" fill="white"/>
<path fill-rule="evenodd" clip-rule="evenodd" d="M141.561 6.30015C142.81 7.05299 143.576 11.2051 143.576 11.2051C143.576 11.2051 137.043 11.3014 133.487 11.3014H130.415L126.684 27.5413H120.979C120.979 27.5413 124.529 9.89271 125.368 6.69299C125.64 5.6573 127.229 5.83482 129.912 5.83482H134.198C136.966 5.83482 140.201 5.48164 141.561 6.30015Z" fill="white"/>
<path fill-rule="evenodd" clip-rule="evenodd" d="M114.998 14.2096C114.998 14.2096 115.176 13.1671 114.395 11.96C113.728 10.9308 113.111 10.6917 111.356 10.6368C106.398 10.481 106.494 14.1547 106.494 14.1547L114.998 14.2096ZM120.375 10.0027C121.102 12.623 119.717 18.7808 119.717 18.7808C119.717 18.7808 112.485 18.66 108.525 18.7808C107.293 18.8183 105.819 18.647 105.452 19.2198C104.936 20.0228 105.64 21.2587 106.238 21.7807C106.925 22.382 108.263 22.4502 108.744 22.5115C111.959 22.9199 118.688 22.6169 118.688 22.6169L117.522 27.7783C117.522 27.7783 108.013 28.2548 103.257 27.1199C102.318 26.8963 101.438 26.4443 100.843 25.8033C100.681 25.6279 100.54 25.3887 100.387 25.1824C100.264 25.0176 99.9065 24.4757 99.7461 24.0476C98.6599 21.153 99.8734 15.6074 101.063 12.636C101.201 12.2915 101.374 11.855 101.557 11.4839C101.785 11.021 101.978 10.4987 102.16 10.222C102.283 10.0312 102.435 9.90816 102.562 9.72816C102.709 9.51532 102.88 9.30899 103.038 9.12496C103.477 8.61564 103.975 8.25564 104.574 7.80827C106.556 6.3246 110.142 5.17241 114.45 5.61358C116.071 5.78026 118.521 6.3596 119.717 8.02762C120.037 8.47313 120.195 9.35732 120.375 10.0027Z" fill="white"/>
<path fill-rule="evenodd" clip-rule="evenodd" d="M94.2048 5.81507L99.7374 5.78223C99.7374 5.78223 96.6542 20.409 95.0828 27.5414H88.7184C84.2702 27.5414 80.3089 28.0922 78.6236 24.9077C76.9887 21.8158 78.5489 16.7309 79.2819 13.2765C79.7999 10.8318 80.8907 5.83489 80.8907 5.83489L86.6228 5.78223C86.6228 5.78223 85.0032 13.5619 84.3293 17.4462C84.088 18.8376 83.5901 20.1478 84.11 21.177C84.6038 22.156 85.295 22.226 87.4017 22.2743C88.069 22.2898 90.2547 22.2743 90.2547 22.2743L94.2048 5.81507Z" fill="white"/>
<path fill-rule="evenodd" clip-rule="evenodd" d="M68.3091 16.3489C68.8884 14.2905 69.7332 12.0586 69.6257 10.2041C69.5096 8.22041 67.8462 6.41422 66.773 6.0347C63.5405 4.89337 60.5142 6.48889 59.3116 7.79009C57.7554 9.47576 57.2287 11.4443 56.6779 14.1545C56.2677 16.1667 55.9318 18.2911 56.6779 19.8603C57.9989 22.6343 62.1181 22.0286 66.5534 22.055C67.2117 20.2906 67.756 18.3087 68.3091 16.3489ZM75.9902 8.22909C76.6222 12.8245 74.1973 17.8964 72.5271 22.3071C74.2301 22.4608 75.7225 22.2833 75.83 22.4103C75.9418 22.5751 74.6887 27.6752 74.2518 27.6882C72.9001 27.7235 68.4212 27.7607 66.5534 27.7607C60.4591 27.7607 54.7577 28.1579 51.8501 25.1273C50.6694 23.8962 49.8531 21.7848 49.6554 20.2993C49.3261 17.8192 49.7388 15.0892 50.3138 12.8378C50.8339 10.8055 51.501 8.88743 52.5085 7.13174C55.0693 2.6615 59.5244 -0.656564 66.9924 0.109285C68.4407 0.258613 70.5211 0.892794 71.8204 1.64532C71.9103 1.6983 72.2244 1.94832 72.2966 1.99231C74.0523 3.10948 75.6522 5.7757 75.9902 8.22909Z" fill="white"/>
<path fill-rule="evenodd" clip-rule="evenodd" d="M49.0256 5.84152C48.6569 7.52038 48.2883 9.42323 47.8998 11.0823H41.755C42.2312 9.24323 42.5955 7.41504 43.0717 5.81519C45.0381 5.81519 46.8662 5.84152 49.0256 5.84152Z" fill="white"/>
<path fill-rule="evenodd" clip-rule="evenodd" d="M41.5356 12.6184H47.4607C46.6862 16.9068 45.1523 23.8239 43.9496 28.6387C43.1968 31.6519 42.6943 33.8509 40.6576 35.4418C40.4754 35.5846 40.3704 35.5168 40.2189 35.6614C39.8434 36.0193 38.1075 36.4341 37.1465 36.5391C35.5838 36.7083 33.8173 36.5611 31.8971 36.5218C32.3996 34.6849 32.9681 32.4794 33.4158 30.8334C38.0967 31.3997 38.2154 26.9753 39.1215 22.7136C39.6461 20.2512 41.2351 13.6061 41.5356 12.6184Z" fill="white"/>
<path fill-rule="evenodd" clip-rule="evenodd" d="M27.7097 23.8106L27.5827 24.1396C25.4187 28.3531 21.5848 30.9384 16.116 31.0524C13.5595 31.1051 11.1235 30.4492 9.53227 29.7357C6.09803 28.1929 3.20967 25.3315 1.63212 22.2743C-0.630726 17.8917 -1.03875 11.7953 3.66633 7.2417C3.73883 7.2417 3.09566 8.22906 3.16816 8.22906L3.03866 8.6504C-0.351897 19.2654 10.094 28.362 20.2483 27.3217C22.6886 27.0717 25.8007 25.7352 27.7097 23.8106Z" fill="#21609B"/>
<path fill-rule="evenodd" clip-rule="evenodd" d="M21.565 19.4213C24.1196 19.439 26.788 18.245 28.3681 16.5686C26.9857 20.0778 22.983 22.3336 17.6149 21.616C13.1205 21.0147 8.8389 16.4918 8.39774 11.9599C8.07522 8.66165 9.22493 6.69312 11.1191 4.30542C10.4608 5.55426 10.2148 6.51746 10.1534 7.13181C9.43374 14.2664 15.8527 19.3842 21.565 19.4213Z" fill="#21609B"/>
<path fill-rule="evenodd" clip-rule="evenodd" d="M28.1116 10.5598C27.7144 11.4706 25.4277 13.191 24.418 13.406C20.4196 14.2576 17.8587 12.3616 16.5176 10.2041C16.318 9.88159 15.9494 9.00173 15.8834 8.77773C15.3632 7.00903 15.6024 4.33382 17.1542 2.94897C16.6867 4.26567 16.6186 5.7952 16.8645 6.78938C17.0136 7.39072 17.4677 8.44004 17.9222 9.10025C18.7494 10.3029 19.2739 10.5951 20.3363 11.2336C20.8146 11.5211 21.328 11.7516 21.5498 11.8151C22.557 12.1113 24.6835 12.8926 28.1116 10.5598Z" fill="#21609B"/>
</svg>
