<svg width="160" height="45" viewBox="0 0 160 45" fill="none" xmlns="http://www.w3.org/2000/svg">
<path fill-rule="evenodd" clip-rule="evenodd" d="M148.973 18.5723C148.829 18.6008 148.685 18.9137 148.685 19.0843C148.656 20.222 148.627 23.2371 148.627 25.2849C148.627 25.3418 148.713 25.4555 148.8 25.4555C149.232 25.4839 150.271 25.5124 151.165 25.5124C152.405 25.5124 153.126 25.3418 153.529 25.1712C154.567 24.6592 155.058 23.5498 155.058 22.3267C155.058 19.5678 153.097 18.5154 150.184 18.5154C149.982 18.4871 149.406 18.4871 148.973 18.5723ZM156.413 31.2864C156.413 28.4706 154.308 26.9061 150.501 26.9061C150.328 26.9061 149.117 26.8776 148.829 26.9345C148.742 26.963 148.627 27.02 148.627 27.1054C148.627 29.1247 148.598 32.3389 148.685 33.5902C148.742 34.1306 149.146 34.8987 149.636 35.1262C150.155 35.4107 151.338 35.4674 152.145 35.4674C154.423 35.4674 156.413 34.2161 156.413 31.2864ZM143.09 17.0081C143.378 17.0081 144.243 17.0932 146.464 17.0932C148.569 17.0932 150.242 17.0365 152.289 17.0365C154.798 17.0365 158.259 17.9182 158.259 21.6156C158.259 23.4361 156.961 24.8868 155.259 25.5978C155.173 25.6263 155.173 25.683 155.259 25.7115C157.682 26.3089 159.816 27.788 159.816 30.5753C159.816 33.3059 158.086 35.0408 155.577 36.1217C154.048 36.7759 152.145 37.0034 150.213 37.0034C148.742 37.0034 144.791 36.8328 142.6 36.8898C142.369 36.8043 142.802 35.7803 143.003 35.6097C143.523 35.5813 143.926 35.5528 144.474 35.3822C145.253 35.1831 145.339 34.9556 145.455 33.7895C145.512 32.7939 145.512 29.2668 145.512 26.764C145.512 23.3222 145.541 20.99 145.512 19.8523C145.484 18.9707 145.166 18.6862 144.532 18.5154C144.042 18.4302 143.234 18.3163 142.571 18.2311C142.427 18.0888 142.917 17.1217 143.09 17.0081ZM126.45 34.6996C127.143 35.2398 128.498 35.4674 129.709 35.4674C131.266 35.4674 132.824 35.1831 134.323 33.8462C135.852 32.481 136.919 30.3762 136.919 27.02C136.919 23.8058 135.679 21.189 133.141 19.6533C131.699 18.7714 129.853 18.4017 127.719 18.4017C127.085 18.4017 126.479 18.4302 126.104 18.6008C126.018 18.6577 125.816 18.9137 125.816 19.0558C125.758 19.6248 125.758 24.0048 125.758 26.5649C125.758 29.2101 125.758 32.9076 125.816 33.3342C125.816 33.761 126.018 34.4151 126.45 34.6996ZM119.904 17.0081C120.452 17.0081 122.557 17.0932 123.567 17.0932C125.383 17.0932 126.681 17.0081 130.113 17.0081C132.997 17.0081 135.419 17.7761 137.149 19.2264C139.254 21.0185 140.35 23.4931 140.35 26.508C140.35 30.8028 138.36 33.2775 136.371 34.6996C134.381 36.1502 131.785 37.0034 128.094 37.0034C126.133 37.0034 122.759 36.9464 119.962 36.918H119.933C119.789 36.6622 120.164 35.6667 120.394 35.6382C121.144 35.5528 121.346 35.5243 121.721 35.3822C122.326 35.1547 122.442 34.8417 122.529 33.7895C122.615 31.8269 122.586 29.4661 122.586 26.7924C122.586 24.8868 122.615 21.1606 122.557 19.966C122.471 18.9707 122.038 18.7147 121.173 18.5438C120.74 18.4587 120.164 18.3448 119.356 18.2596C119.241 18.0603 119.76 17.1786 119.904 17.0081Z" fill="#8E714E"/>
<path fill-rule="evenodd" clip-rule="evenodd" d="M85.0104 35.8088C84.2894 35.7233 83.7703 35.6097 83.1357 35.3252C83.0494 35.2683 82.905 34.9841 82.905 34.8702C82.8473 33.8746 82.8473 31.0303 82.8473 29.1247C82.8473 27.5886 82.588 26.2519 81.9245 25.3133C81.1458 24.2323 80.0213 23.6067 78.5794 23.6067C77.3104 23.6067 75.609 24.4601 74.196 25.6547C74.1671 25.6829 73.9364 25.8823 73.9653 25.5693C73.9653 25.2564 74.023 24.6307 74.0519 24.2041C74.0807 23.8057 73.8501 23.6067 73.8501 23.6067C72.927 24.0618 70.3317 24.6592 69.38 24.7443C68.688 24.8867 68.515 25.5408 69.236 25.7684H69.2648C70.0432 25.9959 70.5624 26.2519 70.966 26.5079C71.2544 26.7354 71.2256 27.0484 71.2256 27.3044C71.2544 29.4376 71.2544 32.7085 71.1681 34.5005C71.1392 35.2116 70.9374 35.4673 70.4183 35.5812L70.4758 35.5528C70.0721 35.6382 69.7548 35.7233 69.2646 35.7803C69.0916 35.9509 69.0916 36.8613 69.2646 37.0603C69.5819 37.0603 71.2544 36.9749 72.6389 36.9749C74.5421 36.9749 75.5226 37.0603 76.0129 37.0603C76.2147 36.8328 76.2724 35.9793 76.157 35.7803C75.609 35.7518 75.2053 35.6951 74.8306 35.5812C74.3114 35.4673 74.1671 35.2116 74.1382 34.6142C74.0807 33.1066 74.0807 29.9212 74.0807 27.7595C74.0807 27.162 74.2537 26.8776 74.4267 26.707C75.0899 26.1383 76.157 25.7399 77.1086 25.7399C78.0314 25.7399 78.6371 26.0244 79.0985 26.3943C79.7328 26.906 79.9346 27.6456 80.0213 28.1861C80.1653 29.4091 80.1079 31.8268 80.1079 33.9316C80.1079 35.0692 80.0213 35.3537 79.5887 35.4958C79.3869 35.5812 78.8678 35.6951 78.2621 35.7518C78.0602 35.9509 78.118 36.8328 78.2621 37.0318C79.0985 37.0318 80.079 36.9464 81.5209 36.9464C83.3087 36.9464 84.4624 37.0318 84.9238 37.0318C85.0679 36.8613 85.1256 36.0363 85.0101 35.8088H85.0104ZM92.9985 24.9437C91.47 24.9437 90.5184 26.1098 90.5184 27.9301C90.5184 29.7788 91.3545 31.912 93.7195 31.912C94.1231 31.912 94.8729 31.7414 95.2188 31.3433C95.7668 30.8313 96.1419 29.8073 96.1419 28.7265C96.1419 26.3658 94.9593 24.9437 92.9985 24.9437ZM92.7964 37.5154C92.2198 37.5154 91.8159 37.686 91.5566 37.8283C90.3452 38.5961 89.7974 39.3356 89.7974 40.2175C89.7974 41.0422 90.1145 41.6964 90.8068 42.2653C91.643 42.9764 92.7964 43.3178 94.2672 43.3178C97.2087 43.3178 98.5065 41.7533 98.5065 40.2175C98.5065 39.1366 97.9585 38.4255 96.8339 38.0274C96.0264 37.686 94.5556 37.5154 92.7964 37.5154ZM92.9985 44.9105C91.2393 44.9105 89.9704 44.5406 88.8747 43.7159C87.8076 42.9194 87.3462 41.7248 87.3462 40.9001C87.3462 40.6726 87.4039 40.0467 87.923 39.478C88.2401 39.1366 88.9321 38.4825 90.5761 37.3733C90.6336 37.3448 90.6625 37.3163 90.6625 37.2594C90.6625 37.2024 90.6047 37.1455 90.5473 37.1173C89.1917 36.6053 88.7881 35.7803 88.6726 35.3252V35.2683C88.644 35.0977 88.5863 34.9271 88.8458 34.7563C89.0476 34.6142 89.3361 34.4436 89.6531 34.2445C90.1433 33.96 90.6625 33.6471 90.9798 33.3911C91.0375 33.3341 91.0375 33.2774 91.0375 33.2205C91.0375 33.1635 90.9798 33.1066 90.922 33.0784C88.9035 32.424 87.8942 30.9449 87.8942 28.7265C87.8942 27.2759 88.5574 25.9674 89.7397 25.1427C90.5473 24.5168 92.5657 23.7491 93.8924 23.7491H93.979C95.3343 23.7773 96.0841 24.0618 97.151 24.4317C97.7278 24.6307 98.2758 24.7159 99.0256 24.7159C100.15 24.7159 100.64 24.3747 101.044 23.9766C101.073 24.0333 101.131 24.1757 101.16 24.5453C101.188 24.9152 101.073 25.4554 100.785 25.8538C100.554 26.1665 100.035 26.3943 99.5159 26.3943H99.3715C98.8524 26.3373 98.6217 26.2804 98.6217 26.2804L98.5065 26.3373C98.4776 26.3943 98.5065 26.451 98.5354 26.5364L98.5643 26.5933C98.6217 26.8493 98.7372 27.6171 98.7372 27.8164C98.7372 30.1487 97.7856 31.1724 96.7762 31.9405C95.7957 32.6515 94.6711 33.1066 93.4022 33.2205C93.3733 33.2205 93.2581 33.2205 92.9985 33.249C92.8542 33.249 92.6523 33.2774 92.6235 33.2774H92.5946C92.3639 33.3341 91.7873 33.6186 91.7873 34.1021C91.7873 34.5287 92.0469 35.0407 93.2867 35.1262C93.5462 35.1546 93.8058 35.1546 94.0942 35.1831C95.7379 35.2967 97.7856 35.4391 98.7372 35.7518C100.064 36.2353 100.9 37.4015 100.9 38.7954C100.9 40.9001 99.3715 42.8628 96.8339 44.0856C95.5939 44.6261 94.3538 44.9105 92.9985 44.9105ZM109.436 25.0858C108.83 25.0858 108.282 25.2279 107.879 25.5124C106.754 26.195 106.177 27.5604 106.177 29.5512C106.177 33.2774 108.081 35.8942 110.791 35.8942C111.599 35.8942 112.233 35.6667 112.781 35.2116C113.617 34.5287 114.05 33.1635 114.05 31.2579C114.05 27.5604 112.176 25.0858 109.436 25.0858ZM109.955 37.2594C105.053 37.2594 103.294 33.704 103.294 30.3762C103.294 28.044 104.245 26.2519 106.148 24.9719C107.504 24.1472 109.119 23.6921 110.561 23.6921C114.31 23.6921 116.934 26.3373 116.934 30.1487C116.934 32.737 115.896 34.7847 113.906 36.0363C112.954 36.6619 111.311 37.2594 109.955 37.2594H109.955ZM58.5659 25.0858C57.9601 25.0858 57.4124 25.2279 57.0085 25.5124C55.8839 26.195 55.3071 27.5604 55.3071 29.5512C55.3071 33.2774 57.2103 35.8942 59.9212 35.8942C60.7287 35.8942 61.363 35.6667 61.911 35.2116C62.7472 34.5287 63.18 33.1635 63.18 31.2579C63.18 27.5604 61.3342 25.0858 58.5659 25.0858ZM59.085 37.2594C54.1825 37.2594 52.4233 33.704 52.4233 30.3762C52.4233 28.044 53.3749 26.2519 55.2782 24.9719C56.6337 24.1472 58.2486 23.6921 59.6905 23.6921C63.4395 23.6921 66.0637 26.3373 66.0637 30.1487C66.0637 32.737 65.0255 34.7847 63.0356 36.0363C62.1129 36.6619 60.4691 37.2594 59.085 37.2594ZM26.1231 36.9749C26.0654 36.8897 26.0076 36.6337 26.0365 36.3208C26.0365 36.0932 26.0942 35.9509 26.1231 35.8942C26.7286 35.8088 27.0459 35.7233 27.3918 35.6382C27.9686 35.4958 28.1993 35.1831 28.2282 34.472C28.3148 32.7654 28.3148 29.5228 28.2859 27.2759V27.219C28.2859 26.963 28.2859 26.65 27.9686 26.4225C27.5073 26.1383 26.9593 25.8823 26.2383 25.6829C25.9788 25.5978 25.8058 25.4554 25.8347 25.2848C25.8347 25.1143 26.0076 24.9152 26.3827 24.8582C27.3343 24.7728 29.8142 24.1757 30.7947 23.7491C30.8524 23.8057 30.939 23.9766 30.939 24.2041L30.9102 24.5168C30.8813 24.8298 30.8524 25.1997 30.8524 25.5693C30.8524 25.6829 30.9679 25.7684 31.0831 25.7684C31.1409 25.7684 31.1986 25.7399 31.2563 25.7114C33.1019 24.2893 34.7744 23.7773 35.6395 23.7773C37.0528 23.7773 38.1485 24.4317 38.9849 25.7968C39.0424 25.8823 39.1001 25.9105 39.1867 25.9105C39.2445 25.9105 39.3308 25.8823 39.3597 25.8253C41.0611 24.5453 42.7626 23.7773 43.8872 23.7773C46.5691 23.7773 48.1554 25.7399 48.1554 29.0677C48.1554 30.0063 48.1554 31.2294 48.1265 32.3388C48.1265 33.3341 48.0976 34.2445 48.0976 34.8986C48.0976 35.0407 48.2994 35.4958 48.6167 35.5812C49.0204 35.7803 49.5684 35.8657 50.2893 35.9793H50.3182C50.3759 36.1784 50.2604 36.9179 50.1452 37.0603C49.972 37.0603 49.7125 37.0603 49.4243 37.0318C48.8763 37.0034 48.0976 36.9749 47.2326 36.9749C45.4445 36.9749 44.5218 37.0034 43.6276 37.0603C43.5701 36.8328 43.5413 36.1502 43.6276 35.9793C44.1467 35.8942 44.4063 35.8088 44.7236 35.7233C45.3005 35.5527 45.4445 35.2967 45.4734 34.5572C45.4734 34.017 45.5886 29.4091 45.4157 28.2997C45.2427 27.162 44.3774 25.8253 42.4741 25.8253C41.7532 25.8253 40.6286 26.1098 39.5326 26.9345C39.4752 26.9915 39.4174 27.1336 39.4174 27.219V27.2475C39.5326 27.8446 39.5326 28.5275 39.5326 29.5797V31.4284C39.5326 32.7085 39.5038 33.9031 39.5326 34.8132C39.5326 35.4391 39.9077 35.5812 40.225 35.6951C40.3979 35.7233 40.5131 35.7518 40.6575 35.7803C40.917 35.8372 41.1766 35.8942 41.5802 35.9793C41.638 36.0932 41.638 36.4629 41.5514 36.7758C41.5225 36.9464 41.4648 37.0318 41.4362 37.0603C40.4557 37.0318 39.4463 37.0034 37.9755 37.0034C37.543 37.0034 36.7932 37.0318 36.1586 37.0318C35.6395 37.0318 35.1492 37.0603 34.8611 37.0603C34.8322 37.0034 34.7744 36.8043 34.7744 36.4914C34.7744 36.2353 34.8322 36.0363 34.8899 35.9793C35.034 35.9509 35.1492 35.9227 35.2936 35.9227C35.6395 35.8657 35.9279 35.8088 36.2163 35.7518C36.7066 35.6097 36.8795 35.3537 36.9084 34.7281C36.995 33.3059 37.0814 29.2386 36.8795 28.2145C36.5336 26.5649 35.582 25.7399 34.0535 25.7399C33.1596 25.7399 32.0348 26.1665 31.112 26.8493C30.9679 26.963 30.8524 27.2475 30.8524 27.5035V29.1816C30.8524 31.2294 30.8524 33.7895 30.8813 34.8986C30.9102 35.2398 31.0254 35.6382 31.6888 35.7803C31.8329 35.8088 32.0636 35.8657 32.3521 35.8942L32.8712 35.9793C32.9289 36.1502 32.9 36.8328 32.7846 37.0603C32.4961 37.0603 32.1502 37.0318 31.7463 37.0318C31.1409 37.0034 30.3622 36.9749 29.4971 36.9749C28.4878 36.9749 27.7668 37.0034 27.19 37.0318C26.7863 36.9749 26.469 36.9749 26.1231 36.9749Z" fill="white"/>
<path fill-rule="evenodd" clip-rule="evenodd" d="M10.9541 43.8014L9.77181 43.403C9.77181 43.403 9.91616 37.4585 7.75333 37.0319C6.31144 35.3822 7.98402 -32.9378 13.1747 36.8043C13.1747 36.8043 11.3869 37.686 11.0696 39.1936C10.7234 40.6726 10.9541 43.8014 10.9541 43.8014Z" fill="white"/>
<path fill-rule="evenodd" clip-rule="evenodd" d="M10.9541 43.8014L9.77181 43.403C9.77181 43.403 9.91616 37.4585 7.75333 37.0319C6.31144 35.3822 7.98402 -32.9378 13.1747 36.8043C13.1747 36.8043 11.3869 37.686 11.0696 39.1936C10.7234 40.6726 10.9541 43.8014 10.9541 43.8014Z" fill="#A6A385"/>
<path fill-rule="evenodd" clip-rule="evenodd" d="M11.5887 38.0557C11.5887 38.0557 21.9414 31.3431 19.519 17.3775C17.1833 7.22348 11.675 3.89567 11.0695 2.61564C10.4063 1.70551 9.77173 0.112793 9.77173 0.112793L10.2045 28.3565C10.2045 28.385 9.31035 37.0032 11.5887 38.0557Z" fill="white"/>
<path fill-rule="evenodd" clip-rule="evenodd" d="M11.5887 38.0557C11.5887 38.0557 21.9414 31.3431 19.519 17.3775C17.1833 7.22348 11.675 3.89567 11.0695 2.61564C10.4063 1.70551 9.77173 0.112793 9.77173 0.112793L10.2045 28.3565C10.2045 28.385 9.31035 37.0032 11.5887 38.0557Z" fill="#499D4A"/>
<path fill-rule="evenodd" clip-rule="evenodd" d="M9.16628 38.4255C9.16628 38.4255 -0.552162 31.8835 0.0247011 20.3643C0.572424 8.8448 7.43596 3.18473 8.76237 2.1607C9.62767 1.25058 9.65654 0.909148 9.71428 -0.000976562C10.3197 1.27905 10.2045 19.1412 10.2909 21.2459C10.5504 29.3522 9.82949 36.8897 9.16628 38.4255Z" fill="white"/>
<path fill-rule="evenodd" clip-rule="evenodd" d="M9.16628 38.4255C9.16628 38.4255 -0.552162 31.8835 0.0247011 20.3643C0.572424 8.8448 7.43596 3.18473 8.76237 2.1607C9.62767 1.25058 9.65654 0.909148 9.71428 -0.000976562C10.3197 1.27905 10.2045 19.1412 10.2909 21.2459C10.5504 29.3522 9.82949 36.8897 9.16628 38.4255Z" fill="#58AA50"/>
</svg>
