<svg width="104" height="65" viewBox="0 0 104 65" fill="none" xmlns="http://www.w3.org/2000/svg">
<path d="M51.3662 64.8115C51.014 64.8115 50.6853 64.7158 50.3801 64.5484L47.2578 62.6583C46.7883 62.3951 47.023 62.2994 47.1639 62.2516C47.7978 62.0362 47.9151 61.9884 48.5725 61.6056C48.6429 61.5577 48.7368 61.5817 48.8072 61.6295L51.2018 63.0889C51.2957 63.1368 51.4131 63.1368 51.4835 63.0889L60.8506 57.5623C60.9445 57.5144 60.9914 57.4187 60.9914 57.2991V46.2697C60.9914 46.1501 60.9445 46.0544 60.8506 46.0066L51.4835 40.5038C51.3896 40.456 51.2722 40.456 51.2018 40.5038L41.8348 46.0066C41.7409 46.0544 41.6939 46.174 41.6939 46.2697V57.2991C41.6939 57.3948 41.7409 57.5144 41.8348 57.5623L44.3937 59.0696C45.7788 59.7873 46.6474 58.9499 46.6474 58.1126V47.2267C46.6474 47.0832 46.7648 46.9396 46.9291 46.9396H48.1264C48.2673 46.9396 48.4081 47.0593 48.4081 47.2267V58.1126C48.4081 60.0026 47.3987 61.1032 45.6379 61.1032C45.098 61.1032 44.6754 61.1032 43.4781 60.5051L41.0131 59.0696C40.4027 58.7107 40.0271 58.0408 40.0271 57.323V46.2937C40.0271 45.5759 40.4027 44.906 41.0131 44.5472L50.3801 39.0205C50.9671 38.6856 51.7652 38.6856 52.3522 39.0205L61.7192 44.5472C62.3296 44.906 62.7052 45.5759 62.7052 46.2937V57.323C62.7052 58.0408 62.3296 58.7107 61.7192 59.0696L52.3522 64.5962C52.047 64.7398 51.6948 64.8115 51.3662 64.8115ZM54.2537 57.2273C50.1454 57.2273 49.3002 55.3133 49.3002 53.6865C49.3002 53.5429 49.4176 53.3994 49.582 53.3994H50.8027C50.9436 53.3994 51.061 53.4951 51.061 53.6386C51.2488 54.9066 51.7887 55.5287 54.2772 55.5287C56.2492 55.5287 57.0944 55.0741 57.0944 53.9975C57.0944 53.3754 56.8596 52.9209 53.7842 52.6098C51.2253 52.3467 49.6289 51.7725 49.6289 49.691C49.6289 47.7531 51.2253 46.6047 53.9016 46.6047C56.9066 46.6047 58.3856 47.6574 58.5734 49.9542C58.5734 50.0259 58.5499 50.0977 58.5029 50.1695C58.456 50.2173 58.3856 50.2652 58.3151 50.2652H57.0944C56.977 50.2652 56.8596 50.1695 56.8361 50.0499C56.5544 48.734 55.8266 48.3034 53.9016 48.3034C51.7418 48.3034 51.4835 49.069 51.4835 49.6432C51.4835 50.337 51.7887 50.5523 54.6998 50.9351C57.5874 51.3179 58.949 51.8682 58.949 53.9257C58.9255 56.0311 57.2352 57.2273 54.2537 57.2273Z" fill="#539E43"/>
<path d="M22.3025 21.675C22.3025 21.2444 22.0677 20.8377 21.6921 20.6223L11.7381 14.7847C11.5738 14.689 11.386 14.6411 11.1982 14.6172H11.1043C10.9165 14.6172 10.7287 14.689 10.5643 14.7847L0.610384 20.6223C0.234763 20.8377 0 21.2444 0 21.675L0.0234763 37.3698C0.0234763 37.5851 0.140858 37.8004 0.328668 37.8961C0.516479 38.0157 0.751242 38.0157 0.915576 37.8961L6.8316 34.4509C7.20722 34.2356 7.44199 33.8289 7.44199 33.3982V26.0533C7.44199 25.6226 7.67675 25.2159 8.05237 25.0006L10.5643 23.5172C10.7521 23.3976 10.9634 23.3498 11.1747 23.3498C11.386 23.3498 11.5973 23.3976 11.7616 23.5172L14.2736 25.0006C14.6492 25.2159 14.884 25.6226 14.884 26.0533V33.3982C14.884 33.8289 15.1187 34.2356 15.4944 34.4509L21.4104 37.8961C21.5982 38.0157 21.833 38.0157 22.0208 37.8961C22.2086 37.8004 22.326 37.5851 22.326 37.3698L22.3025 21.675Z" fill="#E0E0E0"/>
<path d="M70.1472 0.0707981C69.9594 -0.0249015 69.7246 -0.0249015 69.5603 0.0707981C69.3724 0.190423 69.2551 0.381822 69.2551 0.597146V16.1483C69.2551 16.2919 69.1846 16.4354 69.0438 16.5311C68.9029 16.6029 68.7621 16.6029 68.6212 16.5311L66.1327 15.0717C65.7571 14.8564 65.311 14.8564 64.9354 15.0717L54.9815 20.9333C54.6059 21.1486 54.3711 21.5554 54.3711 21.986V33.6853C54.3711 34.1159 54.6059 34.5226 54.9815 34.738L64.9354 40.5996C65.311 40.8149 65.7571 40.8149 66.1327 40.5996L76.0867 34.738C76.4623 34.5226 76.697 34.1159 76.697 33.6853V4.52083C76.697 4.06625 76.4623 3.65953 76.0867 3.44421L70.1472 0.0707981ZM69.2316 29.8334C69.2316 29.953 69.1846 30.0487 69.0907 30.0965L65.6867 32.1062C65.5928 32.1541 65.4754 32.1541 65.3815 32.1062L61.9774 30.0965C61.8835 30.0487 61.8366 29.9291 61.8366 29.8334V25.814C61.8366 25.6944 61.8835 25.5987 61.9774 25.5508L65.3815 23.5411C65.4754 23.4933 65.5928 23.4933 65.6867 23.5411L69.0907 25.5508C69.1846 25.5987 69.2316 25.7183 69.2316 25.814V29.8334Z" fill="#E0E0E0"/>
<path d="M103.272 25.7182C103.648 25.5029 103.859 25.0962 103.859 24.6655V21.8185C103.859 21.3878 103.624 20.9811 103.272 20.7658L93.3887 14.9281C93.0131 14.7128 92.567 14.7128 92.1914 14.9281L82.2375 20.7897C81.8618 21.005 81.6271 21.4117 81.6271 21.8424V33.5417C81.6271 33.9723 81.8618 34.379 82.2375 34.5944L92.121 40.3363C92.4966 40.5517 92.9426 40.5517 93.2948 40.3363L99.2812 36.939C99.4691 36.8433 99.5864 36.628 99.5864 36.4127C99.5864 36.1973 99.4691 35.982 99.2812 35.8863L89.2803 30.0247C89.0925 29.9051 88.9752 29.7137 88.9752 29.4984V25.8378C88.9752 25.6225 89.0925 25.4072 89.2803 25.3115L92.4027 23.4932C92.5905 23.3736 92.8253 23.3736 93.0131 23.4932L96.1354 25.3115C96.3232 25.4311 96.4406 25.6225 96.4406 25.8378V28.7088C96.4406 28.9242 96.558 29.1395 96.7458 29.2352C96.9336 29.3548 97.1684 29.3548 97.3562 29.2352L103.272 25.7182Z" fill="#E0E0E0"/>
<path d="M92.6375 25.168C92.7079 25.1201 92.8018 25.1201 92.8723 25.168L94.7738 26.2924C94.8443 26.3403 94.8912 26.4121 94.8912 26.5078V28.7567C94.8912 28.8524 94.8443 28.9242 94.7738 28.972L92.8723 30.0965C92.8018 30.1443 92.7079 30.1443 92.6375 30.0965L90.7359 28.972C90.6655 28.9242 90.6185 28.8524 90.6185 28.7567V26.5078C90.6185 26.4121 90.6655 26.3403 90.7359 26.2924L92.6375 25.168Z" fill="#539E43"/>
<mask id="mask0_80400_291" style="mask-type:alpha" maskUnits="userSpaceOnUse" x="27" y="14" width="23" height="27">
<path d="M38.9471 14.9759C38.5715 14.7606 38.1255 14.7606 37.7498 14.9759L27.8663 20.7897C27.4907 21.005 27.2794 21.4117 27.2794 21.8424V33.4938C27.2794 33.9245 27.5142 34.3312 27.8663 34.5465L37.7498 40.3603C38.1255 40.5756 38.5715 40.5756 38.9471 40.3603L48.8307 34.5465C49.2063 34.3312 49.4176 33.9245 49.4176 33.4938V21.8424C49.4176 21.4117 49.1828 21.005 48.8307 20.7897L38.9471 14.9759Z" fill="white"/>
</mask>
<g mask="url(#mask0_80400_291)">
<path d="M38.9471 14.9759C38.5715 14.7606 38.1255 14.7606 37.7498 14.9759L27.8663 20.7897C27.4907 21.005 27.2794 21.4117 27.2794 21.8424V33.4938C27.2794 33.9245 27.5142 34.3312 27.8663 34.5465L37.7498 40.3603C38.1255 40.5756 38.5715 40.5756 38.9471 40.3603L48.8307 34.5465C49.2063 34.3312 49.4176 33.9245 49.4176 33.4938V21.8424C49.4176 21.4117 49.1828 21.005 48.8307 20.7897L38.9471 14.9759Z" fill="url(#paint0_linear_80400_291)"/>
<path d="M48.8542 20.7891L38.9237 14.9753C38.8298 14.9275 38.7124 14.8796 38.6185 14.8557L27.4907 34.2827C27.5846 34.4023 27.702 34.498 27.8194 34.5698L37.7499 40.3836C38.0316 40.551 38.3602 40.5989 38.6654 40.5032L49.1124 21.0283C49.042 20.9326 48.9481 20.8609 48.8542 20.7891Z" fill="url(#paint1_linear_80400_291)"/>
<path fill-rule="evenodd" clip-rule="evenodd" d="M48.8776 34.5467C49.1593 34.3792 49.3706 34.0921 49.4645 33.7811L38.5715 14.8326C38.2898 14.7847 37.9846 14.8086 37.7264 14.9761L27.8663 20.7659L38.5011 40.5279C38.642 40.504 38.8063 40.4561 38.9471 40.3843L48.8776 34.5467Z" fill="url(#paint2_linear_80400_291)"/>
<path fill-rule="evenodd" clip-rule="evenodd" d="M48.8777 34.5464L38.9707 40.3601C38.8299 40.4319 38.689 40.4797 38.5247 40.5036L38.7125 40.8625L49.6994 34.3789V34.2353L49.4177 33.7568C49.3707 34.0918 49.1594 34.3789 48.8777 34.5464Z" fill="url(#paint3_linear_80400_291)"/>
<path fill-rule="evenodd" clip-rule="evenodd" d="M48.8777 34.5464L38.9707 40.3601C38.8299 40.4319 38.689 40.4797 38.5247 40.5036L38.7125 40.8625L49.6994 34.3789V34.2353L49.4177 33.7568C49.3707 34.0918 49.1594 34.3789 48.8777 34.5464Z" fill="url(#paint4_linear_80400_291)"/>
</g>
<defs>
<linearGradient id="paint0_linear_80400_291" x1="42.3751" y1="19.3098" x2="31.2472" y2="36.4665" gradientUnits="userSpaceOnUse">
<stop stop-color="#41873F"/>
<stop offset="0.3288" stop-color="#418B3D"/>
<stop offset="0.6352" stop-color="#419637"/>
<stop offset="0.9319" stop-color="#3FA92D"/>
<stop offset="1" stop-color="#3FAE2A"/>
</linearGradient>
<linearGradient id="paint1_linear_80400_291" x1="36.8478" y1="29.032" x2="64.2108" y2="14.4445" gradientUnits="userSpaceOnUse">
<stop offset="0.1376" stop-color="#41873F"/>
<stop offset="0.4032" stop-color="#54A044"/>
<stop offset="0.7136" stop-color="#66B848"/>
<stop offset="0.9081" stop-color="#6CC04A"/>
</linearGradient>
<linearGradient id="paint2_linear_80400_291" x1="26.9184" y1="27.6686" x2="49.7883" y2="27.6686" gradientUnits="userSpaceOnUse">
<stop offset="0.0919165" stop-color="#6CC04A"/>
<stop offset="0.2864" stop-color="#66B848"/>
<stop offset="0.5968" stop-color="#54A044"/>
<stop offset="0.8624" stop-color="#41873F"/>
</linearGradient>
<linearGradient id="paint3_linear_80400_291" x1="26.9185" y1="37.3292" x2="49.7884" y2="37.3292" gradientUnits="userSpaceOnUse">
<stop offset="0.0919165" stop-color="#6CC04A"/>
<stop offset="0.2864" stop-color="#66B848"/>
<stop offset="0.5968" stop-color="#54A044"/>
<stop offset="0.8624" stop-color="#41873F"/>
</linearGradient>
<linearGradient id="paint4_linear_80400_291" x1="53.1203" y1="18.7589" x2="47.1111" y2="49.6567" gradientUnits="userSpaceOnUse">
<stop stop-color="#41873F"/>
<stop offset="0.3288" stop-color="#418B3D"/>
<stop offset="0.6352" stop-color="#419637"/>
<stop offset="0.9319" stop-color="#3FA92D"/>
<stop offset="1" stop-color="#3FAE2A"/>
</linearGradient>
</defs>
</svg>
