<svg width="72" height="65" viewBox="0 0 72 65" fill="none" xmlns="http://www.w3.org/2000/svg">
<path d="M0.212158 32.4284C0.212158 37.8586 5.48911 42.9278 13.8086 45.7852C12.1473 54.1893 13.5109 60.963 18.0655 63.6024C22.7471 66.3152 29.7215 64.4374 36.3412 58.623C42.7939 64.2026 49.3155 66.3985 53.8658 63.7516C58.5428 61.0309 59.9655 53.7978 58.2582 45.1314C66.9235 42.2526 71.7705 37.9301 71.7705 32.4284C71.7705 27.1242 66.4838 22.5353 58.2765 19.6963C60.1144 10.6716 58.5571 4.06233 53.814 1.3139C49.2412 -1.33574 42.6439 0.973695 36.0963 6.69944C29.2846 0.622014 22.7524 -1.2335 18.014 1.52293C13.4456 4.18012 12.1419 11.0769 13.8086 19.6366C5.77003 22.4529 0.212158 27.1454 0.212158 32.4284Z" fill="#2F2F2F"/>
<path d="M56.5382 22.5156C55.8789 22.2876 55.1958 22.0718 54.4924 21.8678C54.608 21.3937 54.7141 20.9257 54.8085 20.4657C56.3571 12.9124 55.3446 6.8273 51.8871 4.82384C48.5718 2.90278 43.1499 4.90579 37.6741 9.69427C37.1475 10.1547 36.6195 10.6422 36.0916 11.1532C35.74 10.8151 35.3888 10.4885 35.0386 10.176C29.2998 5.05583 23.5475 2.89812 20.0934 4.90738C16.7813 6.834 15.8004 12.5545 17.1944 19.7129C17.329 20.4044 17.4864 21.1105 17.6643 21.8284C16.8502 22.0606 16.0642 22.3081 15.3122 22.5715C8.58403 24.9286 4.28711 28.6227 4.28711 32.4545C4.28711 36.4119 8.89986 40.3813 15.9078 42.7882C16.4608 42.9781 17.0347 43.1577 17.6261 43.3282C17.4341 44.1047 17.2671 44.8655 17.127 45.6077C15.7978 52.6418 16.8358 58.2272 20.1391 60.1417C23.5511 62.1188 29.2774 60.0866 34.8533 55.189C35.2941 54.8018 35.7363 54.3913 36.1794 53.9609C36.7537 54.5166 37.3271 55.0426 37.8975 55.5359C43.2984 60.206 48.6328 62.0918 51.933 60.172C55.3416 58.1893 56.4494 52.1892 55.0112 44.8892C54.9013 44.3317 54.7735 43.7621 54.63 43.1824C55.0321 43.0629 55.4269 42.9396 55.8118 42.8114C63.0972 40.3859 67.8374 36.4648 67.8374 32.4545C67.8374 28.6088 63.4019 24.8898 56.5382 22.5156Z" fill="#53C1DE"/>
<path d="M54.9581 40.2219C54.6106 40.3375 54.2541 40.4493 53.8907 40.5576C53.0865 37.9991 52.001 35.2785 50.6726 32.4677C51.9402 29.7238 52.9838 27.038 53.7655 24.4961C54.4156 24.6852 55.0466 24.8845 55.6546 25.0949C61.5354 27.1292 65.1226 30.1369 65.1226 32.4544C65.1226 34.923 61.2486 38.1275 54.9581 40.2219ZM52.348 45.4189C52.984 48.6469 53.0748 51.5654 52.6536 53.8469C52.2751 55.8969 51.5139 57.2637 50.5728 57.8112C48.57 58.976 44.2871 57.4619 39.6681 53.4679C39.1386 53.0101 38.6053 52.5212 38.0702 52.0038C39.8609 50.0359 41.6505 47.7482 43.3972 45.2074C46.4694 44.9335 49.3719 44.4856 52.004 43.8742C52.1337 44.3997 52.2488 44.9151 52.348 45.4189ZM25.9529 57.6099C23.9962 58.3042 22.4378 58.3241 21.4957 57.7783C19.4912 56.6165 18.6578 52.132 19.7945 46.1164C19.9247 45.4275 20.0797 44.7198 20.2583 43.9964C22.8616 44.5749 25.7429 44.9911 28.8224 45.242C30.5808 47.7282 32.4222 50.0134 34.2778 52.0144C33.8724 52.4076 33.4685 52.782 33.067 53.1349C30.6013 55.3005 28.1305 56.837 25.9529 57.6099ZM16.7859 40.2068C13.6872 39.1426 11.1281 37.7594 9.37394 36.25C7.79774 34.8937 7.00195 33.5471 7.00195 32.4544C7.00195 30.1292 10.452 27.1633 16.206 25.1474C16.9041 24.9028 17.635 24.6723 18.3934 24.4558C19.1887 27.0551 20.2319 29.7727 21.4907 32.5208C20.2156 35.3097 19.1576 38.0706 18.3545 40.7004C17.8138 40.5442 17.29 40.3798 16.7859 40.2068ZM19.8588 19.189C18.6645 13.0559 19.4577 8.42925 21.4536 7.26827C23.5797 6.03148 28.281 7.79488 33.2361 12.2159C33.5528 12.4985 33.8708 12.7942 34.1897 13.1002C32.3432 15.0924 30.5187 17.3605 28.7759 19.832C25.7871 20.1104 22.9261 20.5575 20.2957 21.1563C20.1303 20.4879 19.9838 19.8311 19.8588 19.189ZM47.2715 25.9906C46.6427 24.8992 45.9971 23.8336 45.339 22.7971C47.3666 23.0546 49.3093 23.3966 51.1337 23.815C50.586 25.5788 49.9033 27.423 49.0997 29.3136C48.5233 28.2139 47.9136 27.1051 47.2715 25.9906ZM36.0927 15.0498C37.3449 16.413 38.5989 17.9349 39.8324 19.5863C38.5894 19.5273 37.3311 19.4966 36.0623 19.4966C34.8056 19.4966 33.5565 19.5266 32.3213 19.5846C33.556 17.9486 34.8209 16.4287 36.0927 15.0498ZM24.8422 26.0095C24.2141 27.104 23.6157 28.2067 23.0483 29.3116C22.2577 27.4276 21.5814 25.5749 21.0289 23.7861C22.8421 23.3784 24.7756 23.045 26.7904 22.7923C26.123 23.8384 25.4721 24.9118 24.8422 26.0093V26.0095ZM26.8484 42.3111C24.7668 42.0777 22.8042 41.7615 20.9914 41.3651C21.5527 39.5443 22.244 37.6521 23.0513 35.7275C23.6202 36.8315 24.221 37.9348 24.853 39.0316H24.8531C25.4968 40.1491 26.1638 41.2437 26.8484 42.3111ZM36.1678 50.0514C34.8811 48.6563 33.5976 47.1132 32.3441 45.4534C33.561 45.5013 34.8015 45.5259 36.0623 45.5259C37.3577 45.5259 38.6382 45.4966 39.8985 45.4402C38.661 47.1299 37.4115 48.6754 36.1678 50.0514ZM49.1256 35.6294C49.975 37.5748 50.6911 39.4571 51.2596 41.2469C49.417 41.6692 47.4276 42.0094 45.3315 42.2622C45.9912 41.2117 46.6424 40.1278 47.2824 39.0129C47.9297 37.8849 48.5444 36.7552 49.1256 35.6294ZM44.9307 37.65C43.9373 39.3808 42.9174 41.0331 41.8821 42.5927C39.9963 42.7281 38.048 42.7979 36.0623 42.7979C34.0847 42.7979 32.161 42.7362 30.3086 42.6154C29.2315 41.0353 28.1894 39.3782 27.2023 37.6649H27.2026C26.2181 35.9563 25.312 34.2333 24.491 32.5199C25.3118 30.8025 26.2155 29.0775 27.1943 27.372L27.1941 27.3723C28.1755 25.6622 29.2084 24.0132 30.2755 22.443C32.1655 22.2995 34.1036 22.2245 36.0622 22.2245H36.0623C38.0298 22.2245 39.9704 22.3 41.8598 22.4448C42.9107 24.0035 43.9365 25.6472 44.9218 27.3576C45.9183 29.0871 46.8336 30.8006 47.6614 32.4811C46.8361 34.1905 45.9228 35.9213 44.9307 37.65ZM50.5311 7.18711C52.6592 8.42027 53.4868 13.3936 52.1497 19.9151C52.0644 20.3312 51.9684 20.7551 51.8641 21.1846C49.2276 20.5733 46.3645 20.1184 43.367 19.8359C41.6208 17.3372 39.8112 15.0656 37.9949 13.0989C38.4832 12.6269 38.9709 12.1768 39.4565 11.752C44.1482 7.64928 48.5332 6.02944 50.5311 7.18711Z" fill="#2F2F2F"/>
<path d="M36.0623 26.7522C39.1963 26.7522 41.7371 29.3051 41.7371 32.4544C41.7371 35.6036 39.1963 38.1567 36.0623 38.1567C32.9282 38.1567 30.3875 35.6036 30.3875 32.4544C30.3875 29.3051 32.9282 26.7522 36.0623 26.7522Z" fill="#53C1DE"/>
</svg>
