<svg width="25" height="21" viewBox="0 0 25 21" fill="none" xmlns="http://www.w3.org/2000/svg">
<path d="M23.3871 -0.000610352H1.6129C1.18531 -5.02331e-05 0.775384 0.17006 0.473027 0.472417C0.17067 0.774773 0.000560118 1.1847 0 1.61229V15.322C0.000560118 15.7496 0.17067 16.1595 0.473027 16.4618C0.775384 16.7642 1.18531 16.9343 1.6129 16.9349H9.92439L9.38659 18.5478H8.06452C7.95757 18.5478 7.85501 18.5903 7.77939 18.6659C7.70377 18.7415 7.66129 18.8441 7.66129 18.951V19.7575H4.03226C3.92532 19.7575 3.82275 19.7999 3.74713 19.8756C3.67151 19.9512 3.62903 20.0537 3.62903 20.1607C3.62903 20.2676 3.67151 20.3702 3.74713 20.4458C3.82275 20.5214 3.92532 20.5639 4.03226 20.5639H21.7742C21.8811 20.5639 21.9837 20.5214 22.0593 20.4458C22.1349 20.3702 22.1774 20.2676 22.1774 20.1607C22.1774 20.0537 22.1349 19.9512 22.0593 19.8756C21.9837 19.7999 21.8811 19.7575 21.7742 19.7575H17.3387V18.951C17.3387 18.8441 17.2962 18.7415 17.2206 18.6659C17.145 18.5903 17.0424 18.5478 16.9355 18.5478H15.6134L15.0756 16.9349H23.3871C23.8147 16.9343 24.2246 16.7642 24.527 16.4618C24.8293 16.1595 24.9994 15.7496 25 15.322V1.61229C24.9994 1.1847 24.8293 0.774773 24.527 0.472417C24.2246 0.17006 23.8147 -5.02331e-05 23.3871 -0.000610352ZM16.5323 19.3542V19.7575H8.46774V19.3542H16.5323ZM10.2369 18.5478L10.7747 16.9349H14.2253L14.7631 18.5478H10.2369ZM24.1935 15.322C24.1933 15.5358 24.1082 15.7407 23.957 15.8919C23.8059 16.0431 23.6009 16.1281 23.3871 16.1284H1.6129C1.3991 16.1281 1.19414 16.0431 1.04297 15.8919C0.891787 15.7407 0.806732 15.5358 0.806452 15.322V14.5155H24.1935V15.322ZM6.8377 10.08L6.68649 13.7091H6.21673L6.06552 10.08H6.8377ZM6.12097 9.27358L6.39012 7.66068H6.5131L6.78226 9.27358H6.12097ZM6.45161 6.85423C6.01462 6.85423 5.64516 6.3003 5.64516 5.64455C5.64516 5.23074 6.06754 4.62943 6.4506 4.20554C6.79587 4.5886 7.25806 5.201 7.25806 5.64455C7.25806 6.3003 6.88861 6.85423 6.45161 6.85423ZM10.8397 6.04778L10.8871 6.14304V6.451H9.27419V6.14304L9.32157 6.04778H10.8397ZM9.7248 5.24133L10.0806 4.53014L10.4365 5.24133H9.7248ZM10.8871 7.25745V13.6587C10.8873 13.6755 10.8884 13.6924 10.8906 13.7091H9.27067C9.27286 13.6924 9.27404 13.6755 9.27419 13.6587V7.25745H10.8871ZM14.5161 5.64455H15.7258V6.451H15.3226C15.2156 6.451 15.1131 6.49348 15.0375 6.5691C14.9618 6.64472 14.9194 6.74729 14.9194 6.85423C14.9194 6.96117 14.9618 7.06373 15.0375 7.13935C15.1131 7.21497 15.2156 7.25745 15.3226 7.25745H15.7258V8.06391H14.5161C14.4092 8.06391 14.3066 8.10639 14.231 8.18201C14.1554 8.25763 14.1129 8.36019 14.1129 8.46713C14.1129 8.57407 14.1554 8.67664 14.231 8.75226C14.3066 8.82788 14.4092 8.87036 14.5161 8.87036H15.7258V9.67681H15.3226C15.2156 9.67681 15.1131 9.71929 15.0375 9.79491C14.9618 9.87053 14.9194 9.97309 14.9194 10.08C14.9194 10.187 14.9618 10.2895 15.0375 10.3652C15.1131 10.4408 15.2156 10.4833 15.3226 10.4833H15.7258V11.2897H14.5161C14.4092 11.2897 14.3066 11.3322 14.231 11.4078C14.1554 11.4834 14.1129 11.586 14.1129 11.6929C14.1129 11.7999 14.1554 11.9024 14.231 11.9781C14.3066 12.0537 14.4092 12.0962 14.5161 12.0962H15.7258V13.7091H12.9032V4.03165H15.7258V4.8381H14.5161C14.4092 4.8381 14.3066 4.88058 14.231 4.9562C14.1554 5.03182 14.1129 5.13438 14.1129 5.24133C14.1129 5.34827 14.1554 5.45083 14.231 5.52645C14.3066 5.60207 14.4092 5.64455 14.5161 5.64455ZM19.3548 10.4833V13.6587C19.355 13.6755 19.3562 13.6924 19.3584 13.7091H17.7384C17.7406 13.6924 17.7418 13.6755 17.7419 13.6587V10.4833H19.3548ZM17.7419 9.67681V9.36884L18.5484 7.75594L19.3548 9.36884V9.67681H17.7419ZM24.1935 13.7091H20.1578C20.16 13.6924 20.1611 13.6755 20.1613 13.6587V9.27358C20.1612 9.21098 20.1467 9.14923 20.119 9.09314L18.9093 6.67378C18.8757 6.60682 18.8242 6.55052 18.7604 6.51117C18.6967 6.47182 18.6233 6.45099 18.5484 6.45099C18.4735 6.45099 18.4001 6.47182 18.3363 6.51117C18.2726 6.55052 18.2211 6.60682 18.1875 6.67378L16.9778 9.09314C16.95 9.14923 16.9355 9.21098 16.9355 9.27358V13.6587C16.9356 13.6755 16.9368 13.6924 16.939 13.7091H16.5323V3.62842C16.5323 3.52148 16.4898 3.41892 16.4142 3.3433C16.3385 3.26768 16.236 3.2252 16.129 3.2252H12.5C12.3931 3.2252 12.2905 3.26768 12.2149 3.3433C12.1393 3.41892 12.0968 3.52148 12.0968 3.62842V13.7091H11.69C11.6922 13.6924 11.6934 13.6755 11.6935 13.6587V6.04778C11.6935 5.98517 11.679 5.92343 11.6512 5.86733L10.4415 3.44798C10.408 3.38102 10.3564 3.32471 10.2927 3.28537C10.229 3.24602 10.1555 3.22518 10.0806 3.22518C10.0057 3.22518 9.93232 3.24602 9.86858 3.28537C9.80485 3.32471 9.75332 3.38102 9.71976 3.44798L8.51008 5.86733C8.48229 5.92343 8.4678 5.98517 8.46774 6.04778V13.6587C8.4679 13.6755 8.46908 13.6924 8.47127 13.7091H7.49345L7.66079 9.69344C7.66129 9.68437 7.66079 9.6753 7.66079 9.66572V9.65362C7.65985 9.63943 7.65817 9.6253 7.65575 9.61128V9.61028L7.28276 7.37187C7.75101 7.01854 8.06452 6.37641 8.06452 5.64455C8.06452 4.60826 6.86341 3.46058 6.72631 3.33306C6.6516 3.26381 6.55348 3.22533 6.45161 3.22533C6.34974 3.22533 6.25163 3.26381 6.17692 3.33306C6.03982 3.46058 4.83871 4.60826 4.83871 5.64455C4.83871 6.37641 5.15222 7.01854 5.62046 7.37187L5.24748 9.61028V9.61128C5.24506 9.6253 5.24337 9.63943 5.24244 9.65362V9.66572C5.24244 9.6753 5.24194 9.68437 5.24244 9.69344L5.40978 13.7091H0.806452V1.61229C0.806732 1.39849 0.891787 1.19353 1.04297 1.04235C1.19414 0.891176 1.3991 0.806121 1.6129 0.805841H23.3871C23.6009 0.806121 23.8059 0.891176 23.957 1.04235C24.1082 1.19353 24.1933 1.39849 24.1935 1.61229V13.7091Z" fill="white"/>
<path d="M4.4355 14.9187H2.01614C1.9092 14.9187 1.80664 14.9612 1.73102 15.0368C1.6554 15.1124 1.61292 15.215 1.61292 15.3219C1.61292 15.4289 1.6554 15.5314 1.73102 15.6071C1.80664 15.6827 1.9092 15.7252 2.01614 15.7252H4.4355C4.54244 15.7252 4.645 15.6827 4.72062 15.6071C4.79624 15.5314 4.83872 15.4289 4.83872 15.3219C4.83872 15.215 4.79624 15.1124 4.72062 15.0368C4.645 14.9612 4.54244 14.9187 4.4355 14.9187Z" fill="white"/>
<path d="M6.04839 14.9187H5.64517C5.53823 14.9187 5.43567 14.9612 5.36005 15.0368C5.28443 15.1124 5.24194 15.215 5.24194 15.3219C5.24194 15.4289 5.28443 15.5314 5.36005 15.6071C5.43567 15.6827 5.53823 15.7252 5.64517 15.7252H6.04839C6.15534 15.7252 6.2579 15.6827 6.33352 15.6071C6.40914 15.5314 6.45162 15.4289 6.45162 15.3219C6.45162 15.215 6.40914 15.1124 6.33352 15.0368C6.2579 14.9612 6.15534 14.9187 6.04839 14.9187Z" fill="white"/>
<path d="M10.0806 7.66064C9.97365 7.66064 9.87109 7.70313 9.79547 7.77875C9.71985 7.85437 9.67737 7.95693 9.67737 8.06387V12.4994C9.67737 12.6063 9.71985 12.7089 9.79547 12.7845C9.87109 12.8601 9.97365 12.9026 10.0806 12.9026C10.1875 12.9026 10.2901 12.8601 10.3657 12.7845C10.4413 12.7089 10.4838 12.6063 10.4838 12.4994V8.06387C10.4838 7.95693 10.4413 7.85437 10.3657 7.77875C10.2901 7.70313 10.1875 7.66064 10.0806 7.66064Z" fill="white"/>
<path d="M18.5484 10.8865C18.4414 10.8865 18.3389 10.929 18.2632 11.0046C18.1876 11.0802 18.1451 11.1828 18.1451 11.2897V12.4994C18.1451 12.6063 18.1876 12.7089 18.2632 12.7845C18.3389 12.8601 18.4414 12.9026 18.5484 12.9026C18.6553 12.9026 18.7579 12.8601 18.8335 12.7845C18.9091 12.7089 18.9516 12.6063 18.9516 12.4994V11.2897C18.9516 11.1828 18.9091 11.0802 18.8335 11.0046C18.7579 10.929 18.6553 10.8865 18.5484 10.8865Z" fill="white"/>
<path d="M2.01614 2.41876H5.24195C5.34889 2.41876 5.45145 2.37627 5.52707 2.30065C5.60269 2.22503 5.64517 2.12247 5.64517 2.01553C5.64517 1.90859 5.60269 1.80603 5.52707 1.73041C5.45145 1.65479 5.34889 1.6123 5.24195 1.6123H2.01614C1.9092 1.6123 1.80664 1.65479 1.73102 1.73041C1.6554 1.80603 1.61292 1.90859 1.61292 2.01553C1.61292 2.12247 1.6554 2.22503 1.73102 2.30065C1.80664 2.37627 1.9092 2.41876 2.01614 2.41876Z" fill="white"/>
<path d="M2.01614 3.62847H2.82259C2.92953 3.62847 3.0321 3.58599 3.10772 3.51037C3.18334 3.43475 3.22582 3.33219 3.22582 3.22525C3.22582 3.11831 3.18334 3.01574 3.10772 2.94012C3.0321 2.8645 2.92953 2.82202 2.82259 2.82202H2.01614C1.9092 2.82202 1.80664 2.8645 1.73102 2.94012C1.6554 3.01574 1.61292 3.11831 1.61292 3.22525C1.61292 3.33219 1.6554 3.43475 1.73102 3.51037C1.80664 3.58599 1.9092 3.62847 2.01614 3.62847Z" fill="white"/>
<path d="M21.371 12.9026H22.9839C23.0908 12.9026 23.1934 12.8602 23.269 12.7845C23.3446 12.7089 23.3871 12.6064 23.3871 12.4994C23.3871 12.3925 23.3446 12.2899 23.269 12.2143C23.1934 12.1387 23.0908 12.0962 22.9839 12.0962H21.371C21.2641 12.0962 21.1615 12.1387 21.0859 12.2143C21.0103 12.2899 20.9678 12.3925 20.9678 12.4994C20.9678 12.6064 21.0103 12.7089 21.0859 12.7845C21.1615 12.8602 21.2641 12.9026 21.371 12.9026Z" fill="white"/>
<path d="M22.5806 11.6929H22.9838C23.0908 11.6929 23.1933 11.6504 23.2689 11.5748C23.3446 11.4992 23.387 11.3966 23.387 11.2897C23.387 11.1828 23.3446 11.0802 23.2689 11.0046C23.1933 10.929 23.0908 10.8865 22.9838 10.8865H22.5806C22.4737 10.8865 22.3711 10.929 22.2955 11.0046C22.2199 11.0802 22.1774 11.1828 22.1774 11.2897C22.1774 11.3966 22.2199 11.4992 22.2955 11.5748C22.3711 11.6504 22.4737 11.6929 22.5806 11.6929Z" fill="white"/>
</svg>
